HIERARCHY
ROOT Hips
{
 OFFSET 0.000000 0.000000 0.000000
 CHANNELS 6 Xposition Yposition Zposition Yrotation Xrotation Zrotation
 JOINT Chest
 {
  OFFSET 0.000000 9.303000 0.001900
  CHANNELS 3 Yrotation Xrotation Zrotation
  JOINT Chest2
  {
   OFFSET 0.000000 9.301100 -0.003900
   CHANNELS 3 Yrotation Xrotation Zrotation
   JOINT Chest3
   {
    OFFSET 0.000000 9.262800 0.000000
    CHANNELS 3 Yrotation Xrotation Zrotation
    JOINT Chest4
    {
     OFFSET 0.000000 9.253300 0.000000
     CHANNELS 3 Yrotation Xrotation Zrotation
     JOINT Neck
     {
      OFFSET 0.000000 14.010300 0.000000
      CHANNELS 3 Yrotation Xrotation Zrotation
      JOINT Head
      {
       OFFSET 0.000000 8.657600 -0.008300
       CHANNELS 3 Yrotation Xrotation Zrotation
       End Site
       {
        OFFSET 0.000000 16.540200 -0.004400
       }
      }
     }
     JOINT RightCollar
     {
      OFFSET -2.834100 9.267700 0.000000
      CHANNELS 3 Yrotation Xrotation Zrotation
      JOINT RightShoulder
      {
       OFFSET -13.135200 0.000000 0.000000
       CHANNELS 3 Yrotation Xrotation Zrotation
       JOINT RightElbow
       {
        OFFSET 0.000000 -28.893500 0.000000
        CHANNELS 3 Yrotation Xrotation Zrotation
        JOINT RightWrist
        {
         OFFSET 0.000000 -23.344000 0.000000
         CHANNELS 3 Yrotation Xrotation Zrotation
         End Site
         {
          OFFSET 0.000000 -17.223000 0.000000
         }
        }
       }
      }
     }
     JOINT LeftCollar
     {
      OFFSET 2.834100 9.267700 0.000000
      CHANNELS 3 Yrotation Xrotation Zrotation
      JOINT LeftShoulder
      {
       OFFSET 13.135200 0.000000 0.000000
       CHANNELS 3 Yrotation Xrotation Zrotation
       JOINT LeftElbow
       {
        OFFSET 0.000000 -28.893500 0.000000
        CHANNELS 3 Yrotation Xrotation Zrotation
        JOINT LeftWrist
        {
         OFFSET 0.000000 -23.344000 0.000000
         CHANNELS 3 Yrotation Xrotation Zrotation
         End Site
         {
          OFFSET 0.000000 -17.223000 0.000000
         }
        }
       }
      }
     }
    }
   }
  }
 }
 JOINT RightHip
 {
  OFFSET -7.547200 -0.009500 -0.001000
  CHANNELS 3 Yrotation Xrotation Zrotation
  JOINT RightKnee
  {
   OFFSET 0.000000 -39.762800 0.000900
   CHANNELS 3 Yrotation Xrotation Zrotation
   JOINT RightAnkle
   {
    OFFSET 0.000000 -38.588200 0.001600
    CHANNELS 3 Yrotation Xrotation Zrotation
    JOINT RightToe
    {
     OFFSET 0.000000 -4.693300 10.419700
     CHANNELS 3 Yrotation Xrotation Zrotation
     End Site
     {
      OFFSET 0.000000 -1.379900 5.669300
     }
    }
   }
  }
 }
 JOINT LeftHip
 {
  OFFSET 7.547200 -0.009500 -0.001000
  CHANNELS 3 Yrotation Xrotation Zrotation
  JOINT LeftKnee
  {
   OFFSET 0.000000 -39.762800 0.000900
   CHANNELS 3 Yrotation Xrotation Zrotation
   JOINT LeftAnkle
   {
    OFFSET 0.000000 -38.588200 0.001600
    CHANNELS 3 Yrotation Xrotation Zrotation
    JOINT LeftToe
    {
     OFFSET 0.000000 -4.693300 10.419700
     CHANNELS 3 Yrotation Xrotation Zrotation
     End Site
     {
      OFFSET 0.000000 -1.379900 5.669300
     }
    }
   }
  }
 }
}
MOTION
Frames: 13
Frame Time: 0.008333
4.254573 45.793697 3.835179 175.765248 -17.922576 0.498489 3.767628 10.266167 1.491923 0.168469 0.752208 0.137170 0.423624 1.199741 0.175830 3.514661 9.539256 1.665311 1.303958 21.719300 0.847673 1.202448 -2.556707 0.609650 17.299210 -0.131302 -13.110433 23.644906 -38.307720 -46.271994 -3.664769 -62.451967 23.202682 -13.038901 -8.466454 -7.712967 -19.262418 -11.555071 -1.985393 -24.471961 -39.473373 31.122487 50.967136 -68.251930 -88.135104 9.057953 -6.811172 11.558326 -5.736491 -71.094138 -7.611176 -156.900192 80.978636 -158.581772 -11.977676 -21.981367 4.439518 -0.004663 -0.309872 -0.052763 -14.545277 -68.120963 18.300168 72.357553 74.432038 70.983462 -9.665738 -3.953777 -3.112905 0.237132 0.471123 0.130719
4.255375 45.797707 3.832772 175.749892 -17.886224 0.493106 3.707665 10.286742 1.518997 0.158667 0.747630 0.152771 0.415129 1.201844 0.180722 3.449753 9.556397 1.700451 1.968388 21.724434 0.955903 1.890885 -2.538087 0.574600 17.446915 -0.173763 -13.255153 24.108599 -38.409900 -46.062055 -3.739884 -63.105265 24.081526 -13.163435 -8.501783 -7.500341 -19.339162 -11.788062 -1.878923 -25.057982 -39.539942 31.005579 51.698550 -68.554703 -88.931441 8.974749 -7.049459 12.100542 -5.836736 -71.123400 -7.540402 -156.921743 80.997206 -158.567097 -12.044905 -21.970223 4.411611 0.052531 -0.317525 -0.046038 -14.570362 -68.154755 18.348579 72.369134 74.434469 70.995349 -9.660227 -3.949766 -3.110886 0.246858 0.466355 0.127646
4.258766 45.802110 3.830610 175.687344 -17.853252 0.485189 3.624163 10.337031 1.609774 0.214145 0.710326 0.122508 0.405270 1.202394 0.186567 3.377096 9.567577 1.743636 2.642458 21.737844 1.062100 2.592357 -2.504165 0.535525 17.609367 -0.196655 -13.416207 24.616265 -38.548039 -45.845525 -3.738658 -63.749725 24.879274 -13.277346 -8.527175 -7.249624 -19.386675 -12.025513 -1.771595 -25.727336 -39.620379 30.829589 52.383653 -68.799232 -89.642376 8.929853 -7.330785 12.649440 -5.980467 -71.149634 -7.402883 -156.990002 81.019811 -158.618484 -11.970582 -21.977319 4.364691 0.051459 -0.305653 -0.049731 -14.586213 -68.180636 18.435671 72.410270 74.443627 71.030263 -9.605235 -3.915024 -3.086206 0.193382 0.426957 0.102487
4.258480 45.807421 3.826475 175.668076 -17.836628 0.487063 3.532287 10.370164 1.676873 0.229411 0.699305 0.111454 0.395047 1.201785 0.193369 3.303000 9.573438 1.794598 3.314518 21.758769 1.165431 3.295331 -2.456177 0.494252 17.854699 -0.253023 -13.582432 25.100430 -38.657290 -45.606644 -3.634064 -64.384136 25.560508 -13.362399 -8.547956 -6.992709 -19.412989 -12.268106 -1.658398 -26.463844 -39.711115 30.592185 53.051409 -68.982319 -90.294004 8.912966 -7.630355 13.188334 -6.141330 -71.161969 -7.303716 -157.068860 81.042454 -158.688473 -11.928051 -21.964594 4.318579 0.048028 -0.314208 -0.051568 -14.534332 -68.209964 18.412829 72.446047 74.462329 71.080959 -9.589363 -3.903580 -3.067448 0.182776 0.405101 0.091745
4.259076 45.812393 3.824199 175.646707 -17.813983 0.483490 3.509307 10.364903 1.714524 0.179299 0.711940 0.156841 0.385066 1.200236 0.200967 3.231482 9.574068 1.852436 3.976840 21.788452 1.263473 3.992682 -2.393177 0.449959 18.109671 -0.290472 -13.734285 25.648347 -38.792320 -45.409382 -3.416459 -65.010793 26.111402 -13.414172 -8.575682 -6.750460 -19.422465 -12.514744 -1.532374 -27.255885 -39.805270 30.291795 53.751205 -69.105721 -90.936135 8.901992 -7.926598 13.733756 -6.317438 -71.179994 -7.177343 -157.175680 81.066068 -158.806015 -11.838858 -21.944473 4.280043 0.056353 -0.325084 -0.053978 -14.527305 -68.238518 18.433799 72.476906 74.479879 71.117396 -9.569112 -3.897356 -3.053809 0.169959 0.391025 0.083875
4.257000 45.817270 3.822623 175.631498 -17.791414 0.494875 3.409639 10.380542 1.790680 0.195461 0.703130 0.141778 0.375528 1.198230 0.209196 3.163533 9.571110 1.916066 4.627202 21.826599 1.353507 4.682993 -2.315958 0.400230 18.374205 -0.311483 -13.882873 26.242892 -38.955678 -45.244596 -3.095368 -65.637329 26.545049 -13.444203 -8.625991 -6.535066 -19.408867 -12.762868 -1.388946 -28.095265 -39.904196 29.921855 54.522303 -69.185338 -91.610562 8.880653 -8.200129 14.321816 -6.470366 -71.204123 -7.072266 -157.346077 81.089756 -159.011743 -11.781144 -21.906289 4.280520 0.018281 -0.322097 -0.059820 -14.493872 -68.269515 18.418490 72.490452 74.510491 71.126342 -9.529838 -3.887563 -3.031746 0.146786 0.376212 0.073336
4.261143 45.821007 3.825062 175.607851 -17.751559 0.469995 3.324839 10.373504 1.912307 0.212606 0.695728 0.125754 0.366540 1.195932 0.217950 3.100023 9.565520 1.984339 5.262908 21.872852 1.434446 5.363717 -2.225552 0.344448 18.657451 -0.325058 -14.029936 26.867506 -39.132301 -45.105491 -2.667058 -66.268974 26.855393 -13.461951 -8.710927 -6.359187 -19.369071 -13.010876 -1.227320 -28.965033 -40.019241 29.472647 55.381657 -69.245280 -92.334238 8.857104 -8.436011 14.958976 -6.649307 -71.239850 -6.929246 -157.224678 81.100137 -158.832552 -11.776188 -21.872257 4.206895 0.086138 -0.335685 -0.037874 -14.579116 -68.309072 18.532865 72.525159 74.519097 71.159616 -9.506498 -3.875202 -3.017277 0.124513 0.364218 0.060478
4.263118 45.825177 3.826060 175.564934 -17.725167 0.466659 3.281905 10.369547 2.009748 0.207589 0.694043 0.131237 0.357940 1.193029 0.227347 3.040252 9.555926 2.058185 5.876139 21.930467 1.504727 6.026726 -2.119015 0.282690 18.945437 -0.336644 -14.177936 27.536115 -39.309214 -44.983051 -2.106221 -66.904432 27.004982 -13.474816 -8.830434 -6.216798 -19.302658 -13.257832 -1.053965 -29.847225 -40.161148 28.937003 56.319235 -69.304023 -93.106082 8.853736 -8.644173 15.634927 -6.765680 -71.262591 -6.821304 -157.198343 81.116757 -158.786135 -11.742561 -21.844804 4.164227 0.113261 -0.339398 -0.028995 -14.621193 -68.338092 18.616819 72.571449 74.558822 71.197501 -9.462207 -3.864598 -3.000049 0.100423 0.346096 0.045917
4.264237 45.829864 3.825226 175.529892 -17.715037 0.469232 3.234527 10.374303 2.109387 0.202813 0.691715 0.137195 0.349790 1.189125 0.237503 2.985255 9.540135 2.139433 6.456777 22.004972 1.564351 6.660818 -1.990913 0.217229 19.228845 -0.341561 -14.329735 28.257334 -39.480516 -44.866639 -1.396276 -67.541201 26.956768 -13.505616 -8.970318 -6.073362 -19.214154 -13.497884 -0.880474 -30.738995 -40.340152 28.321990 57.295467 -69.362653 -93.893148 8.882650 -8.849316 16.326779 -6.958671 -71.270430 -6.656525 -157.351074 81.145342 -158.971623 -11.693843 -21.854067 4.157732 0.076937 -0.316284 -0.056198 -14.629934 -68.347076 18.658853 72.595521 74.569448 71.218421 -9.443721 -3.810985 -2.992438 0.087446 0.288302 0.036415
4.267835 45.832795 3.830029 175.490973 -17.673921 0.457742 3.202395 10.339344 2.230412 0.198768 0.688740 0.143456 0.342942 1.184092 0.248208 2.941401 9.516926 2.226395 6.994524 22.099140 1.620027 7.252370 -1.839422 0.157592 19.498061 -0.326768 -14.481449 29.034112 -39.647408 -44.757061 -0.543567 -68.178793 26.692864 -13.584997 -9.120313 -5.882298 -19.128016 -13.719496 -0.707230 -31.649174 -40.562108 27.651818 58.271174 -69.413777 -94.646180 8.936076 -9.064866 16.986070 -7.199092 -71.306943 -6.471529 -157.479459 81.183552 -159.061100 -11.657239 -21.844823 4.066826 0.116173 -0.324357 -0.061499 -14.695059 -68.381207 18.766425 72.615145 74.574799 71.234230 -9.440843 -3.810098 -2.990597 0.082634 0.288067 0.032241
4.270341 45.835614 3.835365 175.454385 -17.632340 0.455258 3.183514 10.298351 2.347419 0.218701 0.688948 0.088263 0.316908 1.173948 0.320847 2.915480 9.486174 2.315954 7.479789 22.211831 1.680288 7.787721 -1.667487 0.115188 19.740011 -0.296173 -14.623811 29.866172 -39.799657 -44.652814 0.463042 -68.818453 26.182675 -13.720795 -9.285005 -5.614583 -19.075039 -13.918132 -0.530688 -32.584663 -40.815285 26.955875 59.253082 -69.440359 -95.358826 9.005503 -9.292681 17.569687 -7.396639 -71.343610 -6.327496 -157.715729 81.226228 -159.272819 -11.606511 -21.838248 3.995775 0.097337 -0.313499 -0.065594 -14.803011 -68.420401 18.902431 72.692086 74.573492 71.286650 -9.430848 -3.788294 -2.986063 0.063172 0.273273 0.026596
4.269289 45.837304 3.844752 175.389949 -17.565384 0.485064 3.205701 10.229790 2.444407 0.203649 0.683478 0.125065 0.327811 1.168694 0.301027 2.909276 9.448130 2.407135 7.908143 22.341492 1.747939 8.260346 -1.477922 0.094062 19.945921 -0.266359 -14.755869 30.751398 -39.925556 -44.537376 1.634525 -69.465676 25.405262 -13.888882 -9.470397 -5.264573 -19.064635 -14.102356 -0.357027 -33.537537 -41.077638 26.248773 60.264517 -69.429505 -96.068949 9.079395 -9.529060 18.061058 -7.486602 -71.411358 -6.258869 -157.921861 81.270375 -159.460814 -11.549847 -21.833144 3.923788 0.116194 -0.282039 -0.042804 -14.771550 -68.485284 18.923749 72.684988 74.574045 71.280061 -9.417448 -3.782539 -2.987418 0.054913 0.271635 0.024148
4.265765 45.840688 3.849739 175.343803 -17.527500 0.531676 3.224642 10.186582 2.525602 0.194926 0.676566 0.162473 0.336630 1.163459 0.280932 2.924851 9.402077 2.501426 8.276231 22.487904 1.821543 8.665688 -1.271804 0.093511 20.107033 -0.239840 -14.881902 31.683744 -40.020943 -44.393897 2.934027 -70.133437 24.391814 -14.062746 -9.666567 -4.852069 -19.098099 -14.280435 -0.192761 -34.481674 -41.332349 25.519539 61.300081 -69.401424 -96.812729 9.138712 -9.767897 18.448590 -7.586228 -71.452046 -6.246497 -158.354406 81.327001 -159.879905 -11.459258 -21.839063 3.834218 0.090842 -0.272527 -0.055725 -14.652890 -68.528717 18.834430 72.669103 74.575838 71.273531 -9.399961 -3.780399 -2.983543 0.045602 0.268924 0.018580
